<svg xmlns="http://www.w3.org/2000/svg" xmlns:xlink="http://www.w3.org/1999/xlink" width="500" zoomAndPan="magnify" viewBox="0 0 375 374.999991" height="500" preserveAspectRatio="xMidYMid meet" version="1.0"><defs><g/><clipPath id="985ef10888"><path d="M 229 125.566406 L 333.636719 125.566406 L 333.636719 249 L 229 249 Z M 229 125.566406 " clip-rule="nonzero"/></clipPath></defs><rect x="-37.5" width="450" fill="#ffffff" y="-37.499999" height="449.999989" fill-opacity="1"/><rect x="-37.5" width="450" fill="#ffffff" y="-37.499999" height="449.999989" fill-opacity="1"/><rect x="-37.5" width="450" fill="#ffffff" y="-37.499999" height="449.999989" fill-opacity="1"/><g clip-path="url(#985ef10888)"><path fill="#49326b" d="M 276.632812 196.035156 C 275.074219 194.445312 271.597656 191.605469 268.136719 188.367188 C 264.671875 185.128906 261.234375 181.445312 257.808594 177.308594 C 254.382812 173.171875 250.921875 168.597656 248.394531 164.492188 C 245.871094 160.386719 244.53125 157.054688 243.722656 154.019531 C 242.914062 150.984375 242.625 148.257812 242.832031 145.828125 C 243.035156 143.402344 243.714844 141.25 244.542969 140.078125 C 245.375 138.902344 246.363281 138.355469 247.335938 138.128906 C 248.308594 137.902344 249.328125 137.96875 250.46875 138.351562 C 251.609375 138.734375 252.882812 139.484375 253.953125 140.320312 C 255.027344 141.152344 255.769531 141.800781 256.457031 142.441406 C 257.144531 143.085938 257.78125 143.722656 258.359375 144.359375 C 258.941406 144.992188 259.46875 145.625 259.953125 146.214844 C 260.4375 146.808594 260.996094 147.542969 261.820312 148.734375 C 262.644531 149.925781 263.71875 151.550781 265.035156 153.609375 C 266.351562 155.664062 267.910156 158.144531 268.875 159.683594 C 269.839844 161.226562 270.074219 161.53125 270.347656 161.808594 C 270.621094 162.085938 270.933594 162.328125 271.285156 162.523438 C 271.636719 162.71875 272.023438 162.859375 274.132812 160.089844 C 276.246094 157.320312 277.976562 153.261719 279.695312 149.796875 C 281.414062 146.335938 283.109375 143.472656 284.769531 141.214844 C 286.429688 138.957031 288.035156 137.304688 289.992188 135.75 C 291.945312 134.195312 294.226562 132.714844 296.609375 131.632812 C 298.992188 130.546875 301.488281 129.847656 304.109375 129.53125 C 306.730469 129.21875 309.492188 129.285156 312.847656 130.101562 C 316.207031 130.917969 319.699219 132.617188 322.386719 134.832031 C 325.070312 137.046875 327 139.789062 328.210938 143.125 C 329.421875 146.457031 329.902344 150.425781 329.324219 155.476562 C 328.742188 160.523438 326.925781 166.46875 324.109375 172.578125 C 321.292969 178.6875 317.464844 184.957031 312.617188 191.386719 C 307.773438 197.816406 301.90625 204.398438 295.984375 210.132812 C 290.0625 215.871094 284.335938 220.445312 277.976562 224.675781 C 271.621094 228.910156 264.652344 232.839844 257.121094 236.609375 C 249.585938 240.375 241.453125 243.980469 235.046875 246.644531 C 228.640625 249.308594 228.640625 249.308594 233.015625 247.8125 C 233.015625 247.8125 242.074219 245.671875 250.386719 242.640625 C 258.695312 239.609375 266.347656 236.046875 273.304688 231.964844 C 280.265625 227.886719 286.585938 223.417969 292.28125 218.578125 C 297.972656 213.742188 304.640625 206.933594 310.292969 200.25 C 315.949219 193.570312 320.589844 187 324.214844 180.535156 C 327.84375 174.074219 330.449219 167.71875 332.027344 161.4375 C 333.601562 155.15625 333.636719 150.222656 332.800781 145.9375 C 331.964844 141.648438 330.242188 137.9375 327.636719 134.867188 C 325.03125 131.792969 321.585938 129.402344 317.335938 127.6875 C 313.082031 125.96875 309.757812 125.574219 306.6875 125.640625 C 303.617188 125.710938 300.664062 126.21875 297.839844 127.167969 C 295.019531 128.117188 292.339844 129.5 289.839844 131.289062 C 287.339844 133.078125 285.5 134.570312 283.636719 136.691406 C 281.769531 138.808594 279.949219 141.484375 278.148438 144.71875 C 276.351562 147.949219 274.5625 151.742188 272.800781 156.058594 C 271.039062 160.375 273.089844 159.289062 273.09375 159.292969 C 273.097656 159.292969 273.085938 159.285156 273.050781 159.253906 C 273.015625 159.222656 272.957031 159.160156 272.882812 159.054688 C 272.808594 158.945312 271.085938 156.175781 269.597656 153.820312 C 268.105469 151.464844 266.855469 149.523438 265.832031 148 C 264.8125 146.472656 264.019531 145.355469 263.460938 144.652344 C 262.902344 143.953125 262.378906 143.289062 261.761719 142.570312 C 261.144531 141.855469 260.472656 141.140625 259.753906 140.433594 C 259.03125 139.726562 258.257812 139.023438 257.417969 138.308594 C 256.578125 137.597656 254.964844 136.394531 253.289062 135.550781 C 251.609375 134.707031 249.898438 134.289062 248.191406 134.347656 C 246.484375 134.40625 244.851562 134.953125 243.226562 136.078125 C 241.597656 137.207031 240.246094 139.859375 239.597656 142.636719 C 238.945312 145.417969 238.890625 148.425781 239.414062 151.648438 C 239.933594 154.871094 241.011719 158.304688 242.660156 162.023438 C 244.3125 165.738281 247.910156 170.804688 251.570312 175.246094 C 255.234375 179.683594 258.980469 183.578125 262.792969 186.929688 C 266.609375 190.28125 270.480469 193.074219 272.59375 194.039062 C 276.566406 196.148438 274.773438 194.894531 276.632812 196.035156 Z M 276.632812 196.035156 " fill-opacity="1" fill-rule="nonzero"/></g><path fill="#49326b" d="M 284.097656 160.835938 C 284.683594 160.292969 285.695312 159.117188 286.820312 158.007812 C 287.945312 156.898438 289.207031 155.855469 290.613281 154.875 C 292.023438 153.898438 293.589844 152.984375 295.222656 152.171875 C 296.859375 151.359375 298.398438 150.734375 299.867188 150.300781 C 301.335938 149.863281 302.734375 149.617188 304.070312 149.550781 C 305.40625 149.480469 306.679688 149.585938 308.421875 150.171875 C 310.160156 150.761719 312.089844 151.960938 313.378906 153.421875 C 314.667969 154.882812 315.410156 156.6875 315.609375 158.964844 C 315.804688 161.242188 315.402344 164.035156 313.753906 168.285156 C 312.109375 172.535156 308.683594 178.328125 303.839844 184.585938 C 299 190.84375 292.738281 197.550781 285.160156 204.8125 C 277.582031 212.074219 268.777344 220.023438 261.566406 226.367188 C 254.355469 232.714844 254.355469 232.714844 259.390625 228.765625 C 259.390625 228.765625 270.15625 221.71875 279.109375 214.480469 C 288.058594 207.246094 295.410156 200.15625 301.34375 193.429688 C 307.273438 186.707031 311.816406 180.363281 314.953125 174.378906 C 318.09375 168.398438 319.0625 164.789062 319.292969 161.628906 C 319.523438 158.46875 319 155.648438 317.679688 153.253906 C 316.355469 150.855469 314.253906 149.011719 311.503906 147.75 C 308.757812 146.488281 307.015625 146.25 305.417969 146.28125 C 303.824219 146.3125 302.207031 146.558594 300.585938 147.027344 C 298.960938 147.492188 297.324219 148.167969 295.6875 149.050781 C 294.046875 149.929688 292.363281 151.011719 290.855469 152.164062 C 289.351562 153.316406 288.035156 154.550781 286.921875 155.855469 C 285.804688 157.160156 284.898438 158.539062 284.632812 159.320312 C 283.980469 160.773438 284.476562 160.164062 284.097656 160.835938 Z M 284.097656 160.835938 " fill-opacity="1" fill-rule="nonzero"/><g fill="#49326b" fill-opacity="1"><g transform="translate(41.74568, 220.178651)"><g><path d="M 33.140625 -17.585938 C 33.140625 -21.265625 33.140625 -24.199219 32.089844 -27.054688 C 33.742188 -28.257812 35.46875 -28.78125 36.898438 -28.78125 C 40.128906 -28.78125 42.160156 -27.578125 42.160156 -23.144531 L 42.160156 -1.351562 C 42.160156 -0.449219 42.910156 0 43.511719 0 L 50.5 0 C 51.101562 0 51.851562 -0.449219 51.851562 -1.351562 L 51.851562 -19.089844 C 51.851562 -34.570312 46.96875 -37.273438 37.949219 -37.273438 C 37.046875 -37.273438 32.011719 -37.273438 28.03125 -33.816406 C 23.972656 -36.824219 21.644531 -37.273438 17.359375 -37.273438 C 14.203125 -37.273438 4.660156 -35.320312 4.660156 -33.515625 L 4.660156 -1.351562 C 4.660156 -0.449219 5.410156 0 6.011719 0 L 13 0 C 13.601562 0 14.355469 -0.449219 14.355469 -1.351562 L 14.355469 -27.804688 C 14.355469 -27.804688 16.910156 -28.78125 18.5625 -28.78125 C 22.09375 -28.78125 23.445312 -27.578125 23.445312 -22.996094 L 23.445312 -1.351562 C 23.445312 -0.449219 24.199219 0 24.800781 0 L 31.789062 0 C 32.390625 0 33.140625 -0.449219 33.140625 -1.351562 Z M 33.140625 -17.585938 "/></g></g></g><g fill="#49326b" fill-opacity="1"><g transform="translate(97.495234, 220.178651)"><g><path d="M 13.601562 -22.46875 C 13.601562 -28.78125 18.109375 -28.78125 19.464844 -28.78125 C 20.667969 -28.78125 25.175781 -28.78125 25.175781 -22.46875 Z M 34.871094 -22.09375 C 34.871094 -26.226562 33.589844 -37.273438 19.164062 -37.273438 C 4.882812 -37.273438 3.90625 -26.226562 3.90625 -22.09375 L 3.90625 -16.457031 C 3.90625 -3.984375 11.195312 0.601562 20.816406 0.601562 C 24.800781 0.601562 28.632812 0.601562 31.714844 -0.300781 C 32.238281 -0.449219 32.390625 -1.050781 32.390625 -1.277344 L 31.414062 -7.742188 C 31.1875 -8.265625 30.734375 -8.417969 30.359375 -8.417969 C 28.179688 -8.117188 25.851562 -7.890625 23.445312 -7.890625 C 18.335938 -7.890625 13.675781 -8.039062 13.675781 -14.355469 L 33.515625 -14.355469 C 34.117188 -14.355469 34.871094 -14.804688 34.871094 -15.707031 Z M 34.871094 -22.09375 "/></g></g></g><g fill="#49326b" fill-opacity="1"><g transform="translate(136.26446, 220.178651)"><g><path d="M 13.601562 -22.46875 C 13.601562 -28.78125 18.109375 -28.78125 19.464844 -28.78125 C 20.667969 -28.78125 25.175781 -28.78125 25.175781 -22.46875 Z M 34.871094 -22.09375 C 34.871094 -26.226562 33.589844 -37.273438 19.164062 -37.273438 C 4.882812 -37.273438 3.90625 -26.226562 3.90625 -22.09375 L 3.90625 -16.457031 C 3.90625 -3.984375 11.195312 0.601562 20.816406 0.601562 C 24.800781 0.601562 28.632812 0.601562 31.714844 -0.300781 C 32.238281 -0.449219 32.390625 -1.050781 32.390625 -1.277344 L 31.414062 -7.742188 C 31.1875 -8.265625 30.734375 -8.417969 30.359375 -8.417969 C 28.179688 -8.117188 25.851562 -7.890625 23.445312 -7.890625 C 18.335938 -7.890625 13.675781 -8.039062 13.675781 -14.355469 L 33.515625 -14.355469 C 34.117188 -14.355469 34.871094 -14.804688 34.871094 -15.707031 Z M 34.871094 -22.09375 "/></g></g></g><g fill="#49326b" fill-opacity="1"><g transform="translate(175.033685, 220.178651)"><g><path d="M 23.746094 0.226562 C 24.648438 0.0742188 25.101562 -0.601562 25.101562 -1.203125 L 25.101562 -6.6875 C 25.101562 -7.289062 24.648438 -8.039062 23.746094 -8.039062 C 23.523438 -8.039062 22.019531 -7.890625 21.71875 -7.890625 C 17.960938 -7.890625 17.132812 -10.519531 17.132812 -12.699219 L 17.132812 -28.179688 L 22.996094 -28.179688 C 23.898438 -28.179688 24.347656 -28.933594 24.347656 -29.535156 L 24.347656 -35.320312 C 24.347656 -35.921875 23.898438 -36.671875 22.996094 -36.671875 L 17.132812 -36.671875 L 17.132812 -45.992188 C 17.132812 -46.894531 16.382812 -47.34375 15.78125 -47.34375 L 9.917969 -47.34375 C 9.320312 -47.34375 8.71875 -46.816406 8.492188 -45.917969 L 7.441406 -41.183594 L 7.441406 -36.671875 L 3.757812 -36.671875 C 2.855469 -36.671875 2.40625 -35.921875 2.40625 -35.320312 L 2.40625 -29.535156 C 2.40625 -28.933594 2.855469 -28.179688 3.757812 -28.179688 L 7.441406 -28.179688 L 7.441406 -12.550781 C 7.441406 -2.480469 12.851562 0.601562 19.386719 0.601562 C 21.042969 0.601562 22.542969 0.375 23.746094 0.226562 Z M 23.746094 0.226562 "/></g></g></g><g fill="#49326b" fill-opacity="1"><g transform="translate(203.659796, 220.178651)"><g><path d="M 9.46875 -39.527344 C 12.324219 -39.527344 14.730469 -40.730469 14.730469 -44.1875 C 14.730469 -47.945312 12.324219 -48.921875 9.46875 -48.921875 C 6.613281 -48.921875 4.359375 -47.945312 4.359375 -44.1875 C 4.359375 -40.730469 6.613281 -39.527344 9.46875 -39.527344 Z M 14.355469 -35.320312 C 14.355469 -36.222656 13.601562 -36.671875 13 -36.671875 L 6.011719 -36.671875 C 5.410156 -36.671875 4.660156 -36.222656 4.660156 -35.320312 L 4.660156 -1.351562 C 4.660156 -0.449219 5.410156 0 6.011719 0 L 13 0 C 13.601562 0 14.355469 -0.449219 14.355469 -1.351562 Z M 14.355469 -35.320312 "/></g></g></g><g fill="#49326b" fill-opacity="1"><g transform="translate(222.668734, 220.178651)"><g><path d="M 26.300781 -1.351562 C 26.300781 -0.449219 27.054688 0 27.65625 0 L 34.644531 0 C 35.246094 0 35.996094 -0.449219 35.996094 -1.351562 L 35.996094 -18.1875 C 35.996094 -33.667969 29.683594 -37.273438 20.515625 -37.273438 C 16.082031 -37.273438 4.660156 -35.394531 4.660156 -33.667969 L 4.660156 -1.351562 C 4.660156 -0.449219 5.410156 0 6.011719 0 L 13 0 C 13.601562 0 14.355469 -0.449219 14.355469 -1.351562 L 14.355469 -27.878906 C 14.355469 -27.878906 17.285156 -28.78125 19.539062 -28.78125 C 22.695312 -28.78125 26.300781 -27.65625 26.300781 -22.996094 Z M 26.300781 -1.351562 "/></g></g></g></svg>